<?xml version="1.0" encoding="utf-8"?>
<!-- Generator: Adobe Illustrator 16.0.0, SVG Export Plug-In . SVG Version: 6.00 Build 0)  -->
<!DOCTYPE svg PUBLIC "-//W3C//DTD SVG 1.1//EN" "http://www.w3.org/Graphics/SVG/1.1/DTD/svg11.dtd" [
	<!ENTITY ns_flows "http://ns.adobe.com/Flows/1.0/">
	<!ENTITY ns_extend "http://ns.adobe.com/Extensibility/1.0/">
	<!ENTITY ns_ai "http://ns.adobe.com/AdobeIllustrator/10.0/">
	<!ENTITY ns_graphs "http://ns.adobe.com/Graphs/1.0/">
	<!ENTITY st0 "display:none;fill:#EF7B2A;stroke:#EF7B2A;stroke-miterlimit:10;">
	<!ENTITY st1 "fill:#CC611A;">
	<!ENTITY st2 "fill:#EF7D20;stroke:#EF7B2A;stroke-miterlimit:10;">
]>
<svg version="1.1" xmlns:x="&ns_extend;" xmlns:i="&ns_ai;" xmlns:graph="&ns_graphs;"
	 xmlns="http://www.w3.org/2000/svg" xmlns:xlink="http://www.w3.org/1999/xlink" xmlns:a="http://ns.adobe.com/AdobeSVGViewerExtensions/3.0/"
	 x="0px" y="0px" width="595.276px" height="595.276px" viewBox="0 0 595.276 595.276"
	 style="enable-background:new 0 0 595.276 595.276;" xml:space="preserve">
<g id="Layer_2">
	<path style="&st0;" d="M267.269,292.464c-6.904-1.651-10.355,7.804-12.909,15.46c-2.551,7.653-8.853,22.964-3.45,25.365
		c5.402,2.401,7.803-5.252,7.803-5.252l9.147-23.915c0.792-2.638,1.631-5.285,2.47-7.842
		C270.147,294.611,269.382,293.022,267.269,292.464z"/>
	<path style="&st0;" d="M432.904,299.818c-1.886,2.827-3.686,6.62-5.133,10.763c11.641,0.054,19.999-6.371,21.262-12.334
		C450.384,291.874,440.926,287.811,432.904,299.818z"/>
	<circle style="&st0;" cx="390.344" cy="249.886" r="17.722"/>
	<g>
		<path style="&st2;" d="M459.35,301.089c-2.248,3.37-4.394,7.892-6.119,12.83c13.876,0.063,23.84-7.595,25.346-14.703
			C480.188,291.619,468.913,286.776,459.35,301.089z"/>
		<path style="&st2;" d="M0,0v595.276h595.276V0H0z M408.616,220.441c11.669,0,21.128,9.457,21.128,21.124
			c0,11.668-9.459,21.128-21.128,21.128c-11.668,0-21.128-9.459-21.128-21.128C387.488,229.898,396.948,220.441,408.616,220.441z
			 M486.091,321.846c-15.489,5.726-29.644,5.866-36.213,5.519c-1.769,12.161,0.409,23.109,10.804,23.109
			c13.423,0,24.891-8.937,30.241-13.918c1.904-1.776,4.856-1.779,6.79-0.036c2.108,1.901,2.227,5.178,0.262,7.229
			c-30.932,32.279-61.644,24.034-76.532,8.696c-5.757,4.906-17.546,12.88-33.403,12.88c-11.187,0-17.579-5.298-20.832-12.858
			c-5.768,4.909-17.547,12.858-33.378,12.858c-10.915,0-17.269-5.044-20.592-12.315c-5.977,4.933-17.465,12.315-32.729,12.315
			c-15.992,0-22.208-10.823-23.409-23.627c-7.062,12.477-17.493,23.627-32.238,23.627c-9.831,0-16.153-3.6-20.041-9.057
			c-4.861,3.706-14.696,9.057-30.953,9.057c-24.869,0-28.272-18.609-23.797-32.564c4.475-13.956,10.378-31.134,10.378-31.134
			s1.072-4.65-3.578-5.187c-2.655-0.307-7.577,5.086-11.314,9.781c-0.901,6.016-2.331,10.376-2.331,10.376l-12.826,40.625
			l-44.207,5.139l22.196-63.841c0.873-2.505-0.99-5.124-3.645-5.124c-1.494,0-2.852,0.865-3.487,2.219l-3.256,9.949l-15.385-0.357
			c0,0,1.43-33.997,39.361-33.997c15.856,0,21.889,8.734,23.668,18.537c5.736-7.312,17.403-18.537,35.023-18.537
			c26.12,0,22.542,27.915,19.501,37.038c-2.237,6.708-8.63,24.931-11.861,34.104c-0.936,2.66,1.036,5.439,3.853,5.439
			c1.608,0,3.066-0.942,3.728-2.404l3.596-7.973c-0.304-10.943,2.562-22.461,5.338-29.166c6.44-15.567,24.333-37.038,45.09-37.038
			c11.958,0,17.258,7.598,19.605,14.044c2.491-7.028,4.371-11.896,4.371-11.896h40.259l-23.62,70.496c0,0-0.714,6.266,4.475,6.086
			c3.581-0.126,9.807-5.367,15.202-12.133c-0.079-4.353,0.332-8.827,1.079-13.098c1.263-7.223,3.981-16.671,6.823-25.492h-6.897
			l8.662-25.859c0,0,25.409-3.041,33.283-23.976H375.7l-8.085,23.976h8.757l-9.104,25.859h-8.369l-14.631,43.396
			c-0.428,1.276-0.544,2.655-0.232,3.963c0.4,1.665,1.476,3.46,4.289,3.363c4.131-0.144,10.758-3.248,16.174-9.924
			c-0.296-5.036,0.121-10.307,0.994-15.307c1.784-10.192,6.465-24.812,10.293-35.852c3.22-9.281,11.961-15.5,21.785-15.5
			c11.825,0,20.173,11.589,16.425,22.808l-15.521,46.447c-0.43,1.276-0.543,2.655-0.228,3.963c0.396,1.665,1.475,3.46,4.284,3.363
			c3.252-0.114,8.051-2.055,12.59-6.129c-8.494-16.357-4.592-48.803,21.229-64.013c26.124-15.388,54.932-8.23,66.024,3.582
			C513.466,295.186,507.382,313.972,486.091,321.846z"/>
		<path style="&st2;" d="M261.901,292.323c-8.23-1.969-12.344,9.303-15.388,18.43c-3.042,9.123-10.554,27.374-4.113,30.237
			c6.439,2.862,9.301-6.261,9.301-6.261l10.904-28.509c0.944-3.145,1.944-6.301,2.945-9.349
			C265.332,294.882,264.42,292.988,261.901,292.323z"/>
	</g>
</g>
<g id="Livello_1">
	<g>
		<path style="&st1;" d="M88.736,289.756c6.629-11.008,17.813-16.59,33.243-16.59c13.064,0,20.783,6.033,22.945,17.932l0.292,1.612
			l1.011-1.289c5.348-6.817,16.934-18.254,34.443-18.254c7.634,0,13.268,2.447,16.748,7.275c6.536,9.07,3.7,23.86,2.055,28.793
			c-2.523,7.566-10.319,29.728-11.857,34.093c-0.526,1.494-0.303,3.093,0.612,4.386c0.916,1.292,2.35,2.035,3.935,2.035
			c1.892,0,3.618-1.115,4.398-2.84l3.666-8.127l-0.005-0.17c-0.31-11.14,2.653-22.511,5.284-28.863
			c3.496-8.45,9.85-17.458,16.997-24.098c6.13-5.695,15.863-12.484,27.412-12.484c11.551,0,16.661,7.374,18.914,13.56l0.702,1.926
			l0.685-1.932c2.02-5.702,3.654-10.021,4.183-11.406h38.729l-23.319,69.6l-0.009,0.077c-0.016,0.14-0.368,3.439,1.417,5.438
			c0.869,0.975,2.072,1.469,3.573,1.469c0.079,0,0.159-0.002,0.241-0.003c4.444-0.156,11.264-6.782,15.753-12.41l0.166-0.206
			l-0.005-0.265c-0.074-4.12,0.285-8.479,1.068-12.958c1.086-6.219,3.373-14.762,6.798-25.394l0.31-0.962h-1.13
			c-2.796,8.715-5.458,18.001-6.704,25.123c-0.746,4.271-1.157,8.745-1.079,13.098c-5.396,6.766-11.621,12.009-15.202,12.133
			c-5.189,0.18-4.474-6.086-4.474-6.086l23.619-70.495h-40.259c0,0-1.88,4.867-4.37,11.897c-2.348-6.447-7.648-14.044-19.606-14.044
			c-20.756,0-38.65,21.47-45.09,37.038c-2.776,6.704-5.643,18.223-5.339,29.166l-3.594,7.973c-0.662,1.461-2.12,2.404-3.728,2.404
			c-2.816,0-4.788-2.781-3.853-5.44c3.23-9.173,9.625-27.396,11.861-34.103c3.041-9.124,6.619-37.038-19.501-37.038
			c-17.619,0-29.287,11.225-35.023,18.537c-1.78-9.803-7.812-18.537-23.669-18.537c-37.931,0-39.361,33.997-39.361,33.997
			l0.836,0.019C83.745,302.79,84.836,296.233,88.736,289.756z"/>
		<path style="&st1;" d="M367.254,352.679c1.026,2.367,2.366,4.509,4.066,6.332c-1.363-1.594-2.512-3.466-3.437-5.617l-0.393-0.917
			L367.254,352.679z"/>
		<path style="&st1;" d="M312.358,299.333l8.07-24.09c1.61-0.243,7.135-1.23,13.443-4.135c6.719-3.093,15.56-9.024,19.79-19.771
			h21.013l-8.083,23.977h8.74l-8.453,24.02h0.391l9.104-25.86h-8.757l8.084-23.976h-22.543
			c-7.873,20.935-33.283,23.976-33.283,23.976l-8.662,25.86H312.358z"/>
		<path style="&st1;" d="M263.303,307.679l0.007-0.024c0.874-2.912,1.863-6.052,2.94-9.332l0.049-0.151l-0.017-0.158
			c-0.179-1.639-0.772-2.936-1.737-3.853c0.598,0.817,0.894,1.809,1.006,2.829c-1.001,3.049-2.002,6.203-2.945,9.349l-10.903,28.508
			c0,0-2.863,9.123-9.303,6.262c-6.439-2.864,1.072-21.114,4.113-30.238c1.794-5.376,3.959-11.492,7.117-15.213
			c-3.763,3.95-6.089,10.91-7.814,16.085c-0.391,1.17-0.86,2.507-1.356,3.922c-3.624,10.318-8.587,24.45-2.357,27.221
			c0.924,0.411,1.84,0.619,2.723,0.619c0,0,0.001,0,0.002,0c5.125,0,7.401-6.781,7.572-7.311L263.303,307.679z"/>
		<path style="&st1;" d="M461.5,298.332c-0.954,1.063-1.881,2.251-2.761,3.569c-2.248,3.369-4.449,7.984-6.201,12.995l-0.342,0.975
			l1.209,0.006c14.183,0,24.3-7.771,25.893-15.287c0.449-2.123,0.007-4.145-1.246-5.691c-0.152-0.188-0.316-0.366-0.488-0.535
			c1.003,1.304,1.421,3.048,1.014,4.97c-1.505,7.106-11.469,14.767-25.346,14.701c1.727-4.938,3.871-9.458,6.119-12.83
			C460.06,300.143,460.778,299.189,461.5,298.332z"/>
		<path style="&st1;" d="M313.289,353.233c0.989,2.137,2.244,4.079,3.801,5.754c-1.241-1.456-2.304-3.144-3.183-5.065l-0.397-0.873
			L313.289,353.233z"/>
		<path style="&st1;" d="M365.494,324.824c-0.873,5-1.29,10.271-0.994,15.308c-5.418,6.675-12.043,9.781-16.174,9.923
			c-2.812,0.097-3.89-1.696-4.289-3.361c-0.311-1.309-0.197-2.688,0.231-3.964l14.508-43.028h-0.404l-14.801,43.896
			c-0.495,1.469-0.581,2.98-0.25,4.369c0.609,2.537,2.31,3.932,4.788,3.932c0.08,0,0.16-0.002,0.241-0.003
			c4.327-0.15,11.173-3.359,16.722-10.195l0.18-0.224l-0.016-0.285c-0.274-4.643,0.064-9.878,0.983-15.135
			c1.789-10.239,6.568-25.086,10.263-35.738c3.113-8.974,11.588-15.004,21.09-15.004c5.396,0,10.3,2.511,13.455,6.891
			c3.153,4.379,3.982,9.828,2.271,14.947l-15.521,46.447c-0.495,1.471-0.581,2.98-0.247,4.368c0.604,2.536,2.304,3.931,4.786,3.931
			c0.078,0,0.158-0.002,0.239-0.003c3.03-0.107,8.049-1.822,13.059-6.316l0.422-0.382l-0.262-0.506
			c-4.317-8.312-5.158-20.541-2.194-31.912c3.472-13.326,11.691-24.381,23.144-31.127c9.65-5.685,20.536-8.689,31.481-8.689
			c13.504,0,26.706,4.766,33.633,12.141c4.518,4.809,6.196,10.896,4.728,17.136c-0.896,3.812-2.935,7.418-5.886,10.604
			c8.782-9.021,9.585-20.95,1.695-29.349c-11.095-11.812-39.901-18.97-66.025-3.582c-25.82,15.21-29.724,47.655-21.229,64.013
			c-4.537,4.074-9.338,6.014-12.59,6.128c-2.809,0.097-3.887-1.696-4.285-3.361c-0.313-1.309-0.2-2.688,0.229-3.964l15.521-46.448
			c3.747-11.218-4.6-22.808-16.425-22.808c-9.824,0-18.565,6.218-21.786,15.499C371.959,300.012,367.276,314.631,365.494,324.824z"
			/>
		<path style="&st1;" d="M388.225,242.785c0-11.242,9.147-20.389,20.392-20.389c11.243,0,20.39,9.147,20.39,20.389
			c0,5.146-1.919,9.849-5.074,13.44c3.6-3.789,5.812-8.907,5.812-14.544c0-11.667-9.46-21.125-21.127-21.125
			c-11.669,0-21.129,9.457-21.129,21.125c0,5.636,2.211,10.752,5.807,14.541C390.142,252.63,388.225,247.929,388.225,242.785z"/>
		<path style="&st1;" d="M257.835,342.849l-0.218-2.332l-1.155,2.039c-2.299,4.06-4.73,7.589-7.287,10.593
			c3.014-3.422,5.647-7.308,7.927-11.335c0.629,6.71,2.639,12.871,6.709,17.221C260.781,355.54,258.541,350.375,257.835,342.849z"/>
		<path style="&st1;" d="M152.979,357.326c-4.184-5.734-5.008-14.378-2.205-23.122c4.421-13.788,10.315-30.947,10.374-31.12
			l0.012-0.035l0.009-0.038c0.023-0.098,0.542-2.434-0.72-4.222c-0.175-0.247-0.375-0.469-0.597-0.668
			c1.078,1.537,0.6,3.621,0.6,3.621s-5.904,17.178-10.378,31.134c-2.732,8.521-2.527,18.776,3.71,25.473
			C153.502,358.019,153.234,357.677,152.979,357.326z"/>
		<path style="&st1;" d="M497.715,336.635c-1.934-1.743-4.885-1.74-6.792,0.037c-5.351,4.981-16.818,13.918-30.24,13.918
			c-10.291,0-12.525-10.732-10.853-22.747l-0.583-0.031l-0.097,0.665c-0.952,6.545-1.178,15.396,3.153,20.401
			c2.039,2.358,4.858,3.553,8.379,3.553c13.558,0,25.082-8.845,30.743-14.117c0.788-0.735,1.819-1.141,2.902-1.141
			c1.069,0,2.097,0.396,2.893,1.113c0.869,0.784,1.373,1.863,1.416,3.037c0.036,1.007-0.271,1.969-0.872,2.757
			c0.071-0.074,0.14-0.143,0.211-0.215C499.941,341.814,499.824,338.537,497.715,336.635z"/>
		<path style="&st1;" d="M109.087,299.982c0.495-1.422,0.278-2.941-0.595-4.169c-0.182-0.257-0.391-0.484-0.612-0.694
			c0.697,0.97,0.95,2.257,0.512,3.517l-22.196,63.841l1.212-0.141L109.087,299.982z"/>
		<path style="&st1;" d="M144.983,306.983l-0.123,0.154l-0.029,0.196c-0.881,5.884-2.288,10.21-2.302,10.253l-12.566,39.802
			l0.439-0.051l12.826-40.626c0,0,1.43-4.358,2.331-10.374c0.875-1.098,1.814-2.234,2.774-3.328
			C147.285,304.172,146.17,305.49,144.983,306.983z"/>
		<path style="&st1;" d="M100.573,296.563l-2.981,9.106l0.411,0.011l3.255-9.949c0.106-0.229,0.241-0.436,0.386-0.635
			c-0.433,0.397-0.795,0.877-1.053,1.427L100.573,296.563z"/>
		<path style="&st1;" d="M204.98,356.441l-0.074,0.059c0.558,0.771,1.164,1.504,1.824,2.195c-0.458-0.52-0.897-1.059-1.308-1.635
			L204.98,356.441z"/>
	</g>
</g>
</svg>
